# xmcd CD database file
#
# Track frame offsets:
#	150
#	23065
#	39245
#	57787
#	76075
#	94535
#	111322
#	130530
#	143812
#	164680
#	175307
#
# Disc length: 2578 seconds
#
# Revision: 1
# Processed by: cddbd v1.5.1PL0 Copyright (c) Steve Scherf et al.
# Submitted via: CDex 1.51
#
DISCID=820a100b
DTITLE=サザンオールスターズ - タイニイ・バブルス
DYEAR=1900
DGENRE=
TTITLE0=ふたりだけのパーティー Tiny Bubbles (type-A)
TTITLE1=タバコ・ロードにセクシーばあちゃん
TTITLE2=Hey! Ryudo!
TTITLE3=私はピアノ
TTITLE4=涙のアベニュー
TTITLE5=TO YOU
TTITLE6=恋するマンスリーデイ
TTITLE7=松田の子守唄
TTITLE8=C調言葉に御用心
TTITLE9=Tiny Bubbles (type-B)
TTITLE10=働けロック・バンド (Workin' for T.V.)
EXTD=
EXTT0=
EXTT1=
EXTT2=
EXTT3=
EXTT4=
EXTT5=
EXTT6=
EXTT7=
EXTT8=
EXTT9=
EXTT10=
PLAYORDER=
